<svg width="1363" height="163" viewBox="0 0 1363 163" fill="none" xmlns="http://www.w3.org/2000/svg">
<path d="M0 15C0 6.71573 6.71573 0 15 0H37V163H15C6.71573 163 0 156.284 0 148V15Z" fill="#2B2B2E"/>
<rect width="1097" height="163" transform="translate(37)" fill="#F0F0F0"/>
<path d="M101.906 53.9219L94.3945 51.2383V48.0859L104.602 52.375V54.6367L101.906 53.9219ZM94.3945 56.1719L101.918 53.4297L104.602 52.7852V55.0352L94.3945 59.3242V56.1719ZM114.504 43.9375H117.48L121.863 56.4648L126.246 43.9375H129.223L123.059 61H120.668L114.504 43.9375ZM112.898 43.9375H115.863L116.402 56.1484V61H112.898V43.9375ZM127.863 43.9375H130.84V61H127.324V56.1484L127.863 43.9375ZM137.273 48.3203V61H133.887V48.3203H137.273ZM133.676 45.0156C133.676 44.5234 133.848 44.1172 134.191 43.7969C134.535 43.4766 134.996 43.3164 135.574 43.3164C136.145 43.3164 136.602 43.4766 136.945 43.7969C137.297 44.1172 137.473 44.5234 137.473 45.0156C137.473 45.5078 137.297 45.9141 136.945 46.2344C136.602 46.5547 136.145 46.7148 135.574 46.7148C134.996 46.7148 134.535 46.5547 134.191 46.2344C133.848 45.9141 133.676 45.5078 133.676 45.0156ZM143.367 51.0273V61H139.992V48.3203H143.156L143.367 51.0273ZM142.875 54.2148H141.961C141.961 53.2773 142.082 52.4336 142.324 51.6836C142.566 50.9258 142.906 50.2812 143.344 49.75C143.781 49.2109 144.301 48.8008 144.902 48.5195C145.512 48.2305 146.191 48.0859 146.941 48.0859C147.535 48.0859 148.078 48.1719 148.57 48.3438C149.062 48.5156 149.484 48.7891 149.836 49.1641C150.195 49.5391 150.469 50.0352 150.656 50.6523C150.852 51.2695 150.949 52.0234 150.949 52.9141V61H147.551V52.9023C147.551 52.3398 147.473 51.9023 147.316 51.5898C147.16 51.2773 146.93 51.0586 146.625 50.9336C146.328 50.8008 145.961 50.7344 145.523 50.7344C145.07 50.7344 144.676 50.8242 144.34 51.0039C144.012 51.1836 143.738 51.4336 143.52 51.7539C143.309 52.0664 143.148 52.4336 143.039 52.8555C142.93 53.2773 142.875 53.7305 142.875 54.2148ZM159.352 61.2344C158.367 61.2344 157.484 61.0781 156.703 60.7656C155.922 60.4453 155.258 60.0039 154.711 59.4414C154.172 58.8789 153.758 58.2266 153.469 57.4844C153.18 56.7344 153.035 55.9375 153.035 55.0938V54.625C153.035 53.6641 153.172 52.7852 153.445 51.9883C153.719 51.1914 154.109 50.5 154.617 49.9141C155.133 49.3281 155.758 48.8789 156.492 48.5664C157.227 48.2461 158.055 48.0859 158.977 48.0859C159.875 48.0859 160.672 48.2344 161.367 48.5312C162.062 48.8281 162.645 49.25 163.113 49.7969C163.59 50.3438 163.949 51 164.191 51.7656C164.434 52.5234 164.555 53.3672 164.555 54.2969V55.7031H154.477V53.4531H161.238V53.1953C161.238 52.7266 161.152 52.3086 160.98 51.9414C160.816 51.5664 160.566 51.2695 160.23 51.0508C159.895 50.832 159.465 50.7227 158.941 50.7227C158.496 50.7227 158.113 50.8203 157.793 51.0156C157.473 51.2109 157.211 51.4844 157.008 51.8359C156.812 52.1875 156.664 52.6016 156.562 53.0781C156.469 53.5469 156.422 54.0625 156.422 54.625V55.0938C156.422 55.6016 156.492 56.0703 156.633 56.5C156.781 56.9297 156.988 57.3008 157.254 57.6133C157.527 57.9258 157.855 58.168 158.238 58.3398C158.629 58.5117 159.07 58.5977 159.562 58.5977C160.172 58.5977 160.738 58.4805 161.262 58.2461C161.793 58.0039 162.25 57.6406 162.633 57.1562L164.273 58.9375C164.008 59.3203 163.645 59.6875 163.184 60.0391C162.73 60.3906 162.184 60.6797 161.543 60.9062C160.902 61.125 160.172 61.2344 159.352 61.2344ZM173.965 58.2344V43H177.363V61H174.305L173.965 58.2344ZM165.949 54.8125V54.5664C165.949 53.5977 166.059 52.7188 166.277 51.9297C166.496 51.1328 166.816 50.4492 167.238 49.8789C167.66 49.3086 168.18 48.8672 168.797 48.5547C169.414 48.2422 170.117 48.0859 170.906 48.0859C171.648 48.0859 172.297 48.2422 172.852 48.5547C173.414 48.8672 173.891 49.3125 174.281 49.8906C174.68 50.4609 175 51.1367 175.242 51.918C175.484 52.6914 175.66 53.5391 175.77 54.4609V55C175.66 55.8828 175.484 56.7031 175.242 57.4609C175 58.2188 174.68 58.8828 174.281 59.4531C173.891 60.0156 173.414 60.4531 172.852 60.7656C172.289 61.0781 171.633 61.2344 170.883 61.2344C170.094 61.2344 169.391 61.0742 168.773 60.7539C168.164 60.4336 167.648 59.9844 167.227 59.4062C166.812 58.8281 166.496 58.1484 166.277 57.3672C166.059 56.5859 165.949 55.7344 165.949 54.8125ZM169.324 54.5664V54.8125C169.324 55.3359 169.363 55.8242 169.441 56.2773C169.527 56.7305 169.664 57.1328 169.852 57.4844C170.047 57.8281 170.297 58.0977 170.602 58.293C170.914 58.4805 171.293 58.5742 171.738 58.5742C172.316 58.5742 172.793 58.4453 173.168 58.1875C173.543 57.9219 173.828 57.5586 174.023 57.0977C174.227 56.6367 174.344 56.1055 174.375 55.5039V53.9688C174.352 53.4766 174.281 53.0352 174.164 52.6445C174.055 52.2461 173.891 51.9062 173.672 51.625C173.461 51.3438 173.195 51.125 172.875 50.9688C172.562 50.8125 172.191 50.7344 171.762 50.7344C171.324 50.7344 170.949 50.8359 170.637 51.0391C170.324 51.2344 170.07 51.5039 169.875 51.8477C169.688 52.1914 169.547 52.5977 169.453 53.0664C169.367 53.5273 169.324 54.0273 169.324 54.5664ZM185.836 61.2344C184.852 61.2344 183.969 61.0781 183.188 60.7656C182.406 60.4453 181.742 60.0039 181.195 59.4414C180.656 58.8789 180.242 58.2266 179.953 57.4844C179.664 56.7344 179.52 55.9375 179.52 55.0938V54.625C179.52 53.6641 179.656 52.7852 179.93 51.9883C180.203 51.1914 180.594 50.5 181.102 49.9141C181.617 49.3281 182.242 48.8789 182.977 48.5664C183.711 48.2461 184.539 48.0859 185.461 48.0859C186.359 48.0859 187.156 48.2344 187.852 48.5312C188.547 48.8281 189.129 49.25 189.598 49.7969C190.074 50.3438 190.434 51 190.676 51.7656C190.918 52.5234 191.039 53.3672 191.039 54.2969V55.7031H180.961V53.4531H187.723V53.1953C187.723 52.7266 187.637 52.3086 187.465 51.9414C187.301 51.5664 187.051 51.2695 186.715 51.0508C186.379 50.832 185.949 50.7227 185.426 50.7227C184.98 50.7227 184.598 50.8203 184.277 51.0156C183.957 51.2109 183.695 51.4844 183.492 51.8359C183.297 52.1875 183.148 52.6016 183.047 53.0781C182.953 53.5469 182.906 54.0625 182.906 54.625V55.0938C182.906 55.6016 182.977 56.0703 183.117 56.5C183.266 56.9297 183.473 57.3008 183.738 57.6133C184.012 57.9258 184.34 58.168 184.723 58.3398C185.113 58.5117 185.555 58.5977 186.047 58.5977C186.656 58.5977 187.223 58.4805 187.746 58.2461C188.277 58.0039 188.734 57.6406 189.117 57.1562L190.758 58.9375C190.492 59.3203 190.129 59.6875 189.668 60.0391C189.215 60.3906 188.668 60.6797 188.027 60.9062C187.387 61.125 186.656 61.2344 185.836 61.2344ZM197.109 58.5391L199.922 48.3203H203.449L199.172 61H197.039L197.109 58.5391ZM195.176 48.3203L198 58.5508L198.059 61H195.914L191.637 48.3203H195.176Z" fill="#888888"/>
<path d="M118.594 98.4219V104.75H101.086V98.4219H118.594ZM103.828 84.875V119H95.6016V84.875H103.828ZM124.125 84.875V119H115.922V84.875H124.125ZM127.992 106.578V106.086C127.992 104.227 128.258 102.516 128.789 100.953C129.32 99.375 130.102 98.0078 131.133 96.8516C132.164 95.6953 133.438 94.7969 134.953 94.1562C136.469 93.5 138.219 93.1719 140.203 93.1719C142.203 93.1719 143.961 93.5 145.477 94.1562C147.008 94.7969 148.289 95.6953 149.32 96.8516C150.352 98.0078 151.133 99.375 151.664 100.953C152.195 102.516 152.461 104.227 152.461 106.086V106.578C152.461 108.422 152.195 110.133 151.664 111.711C151.133 113.273 150.352 114.641 149.32 115.812C148.289 116.969 147.016 117.867 145.5 118.508C143.984 119.148 142.234 119.469 140.25 119.469C138.266 119.469 136.508 119.148 134.977 118.508C133.445 117.867 132.164 116.969 131.133 115.812C130.102 114.641 129.32 113.273 128.789 111.711C128.258 110.133 127.992 108.422 127.992 106.578ZM135.891 106.086V106.578C135.891 107.531 135.961 108.422 136.102 109.25C136.242 110.078 136.477 110.805 136.805 111.43C137.133 112.039 137.578 112.516 138.141 112.859C138.703 113.203 139.406 113.375 140.25 113.375C141.078 113.375 141.766 113.203 142.312 112.859C142.875 112.516 143.32 112.039 143.648 111.43C143.977 110.805 144.211 110.078 144.352 109.25C144.492 108.422 144.562 107.531 144.562 106.578V106.086C144.562 105.164 144.492 104.297 144.352 103.484C144.211 102.656 143.977 101.93 143.648 101.305C143.32 100.664 142.875 100.164 142.312 99.8047C141.75 99.4453 141.047 99.2656 140.203 99.2656C139.375 99.2656 138.68 99.4453 138.117 99.8047C137.57 100.164 137.133 100.664 136.805 101.305C136.477 101.93 136.242 102.656 136.102 103.484C135.961 104.297 135.891 105.164 135.891 106.086ZM163.688 111.453L168.375 93.6406H173.32L171.562 102.57L166.922 119H162.961L163.688 111.453ZM161.836 93.6406L164.742 111.312L165.07 119H160.266L154.266 93.6406H161.836ZM177.492 110.938L180.422 93.6406H187.992L182.039 119H177.234L177.492 110.938ZM173.883 93.6406L178.617 111.406L179.344 119H175.336L170.789 102.617L169.102 93.6406H173.883ZM218.297 84.875V119H210.07V84.875H218.297ZM228.562 84.875V91.2266H200.039V84.875H228.562ZM225.773 106.578V106.086C225.773 104.227 226.039 102.516 226.57 100.953C227.102 99.375 227.883 98.0078 228.914 96.8516C229.945 95.6953 231.219 94.7969 232.734 94.1562C234.25 93.5 236 93.1719 237.984 93.1719C239.984 93.1719 241.742 93.5 243.258 94.1562C244.789 94.7969 246.07 95.6953 247.102 96.8516C248.133 98.0078 248.914 99.375 249.445 100.953C249.977 102.516 250.242 104.227 250.242 106.086V106.578C250.242 108.422 249.977 110.133 249.445 111.711C248.914 113.273 248.133 114.641 247.102 115.812C246.07 116.969 244.797 117.867 243.281 118.508C241.766 119.148 240.016 119.469 238.031 119.469C236.047 119.469 234.289 119.148 232.758 118.508C231.227 117.867 229.945 116.969 228.914 115.812C227.883 114.641 227.102 113.273 226.57 111.711C226.039 110.133 225.773 108.422 225.773 106.578ZM233.672 106.086V106.578C233.672 107.531 233.742 108.422 233.883 109.25C234.023 110.078 234.258 110.805 234.586 111.43C234.914 112.039 235.359 112.516 235.922 112.859C236.484 113.203 237.188 113.375 238.031 113.375C238.859 113.375 239.547 113.203 240.094 112.859C240.656 112.516 241.102 112.039 241.43 111.43C241.758 110.805 241.992 110.078 242.133 109.25C242.273 108.422 242.344 107.531 242.344 106.578V106.086C242.344 105.164 242.273 104.297 242.133 103.484C241.992 102.656 241.758 101.93 241.43 101.305C241.102 100.664 240.656 100.164 240.094 99.8047C239.531 99.4453 238.828 99.2656 237.984 99.2656C237.156 99.2656 236.461 99.4453 235.898 99.8047C235.352 100.164 234.914 100.664 234.586 101.305C234.258 101.93 234.023 102.656 233.883 103.484C233.742 104.297 233.672 105.164 233.672 106.086ZM266.086 84.875H279.516C282.141 84.875 284.422 85.2656 286.359 86.0469C288.297 86.8281 289.789 87.9844 290.836 89.5156C291.898 91.0469 292.43 92.9375 292.43 95.1875C292.43 97.1406 292.125 98.7734 291.516 100.086C290.906 101.398 290.055 102.484 288.961 103.344C287.883 104.188 286.625 104.883 285.188 105.43L282.492 106.953H271.219L271.172 100.602H279.516C280.562 100.602 281.43 100.414 282.117 100.039C282.805 99.6641 283.32 99.1328 283.664 98.4453C284.023 97.7422 284.203 96.9062 284.203 95.9375C284.203 94.9531 284.023 94.1094 283.664 93.4062C283.305 92.7031 282.773 92.1641 282.07 91.7891C281.383 91.4141 280.531 91.2266 279.516 91.2266H274.312V119H266.086V84.875ZM284.766 119L277.219 103.906L285.938 103.859L293.578 118.648V119H284.766ZM311.836 112.836V93.6406H319.758V119H312.352L311.836 112.836ZM312.586 107.68L314.648 107.633C314.648 109.336 314.445 110.914 314.039 112.367C313.633 113.805 313.031 115.055 312.234 116.117C311.453 117.18 310.484 118.008 309.328 118.602C308.188 119.18 306.867 119.469 305.367 119.469C304.117 119.469 302.969 119.297 301.922 118.953C300.891 118.594 300 118.039 299.25 117.289C298.5 116.523 297.914 115.547 297.492 114.359C297.086 113.156 296.883 111.719 296.883 110.047V93.6406H304.781V110.094C304.781 110.656 304.852 111.141 304.992 111.547C305.133 111.953 305.336 112.297 305.602 112.578C305.867 112.844 306.195 113.047 306.586 113.188C306.992 113.312 307.453 113.375 307.969 113.375C309.156 113.375 310.086 113.125 310.758 112.625C311.43 112.125 311.898 111.445 312.164 110.586C312.445 109.727 312.586 108.758 312.586 107.68ZM331.875 99.0547V119H323.977V93.6406H331.383L331.875 99.0547ZM330.938 105.453L329.086 105.5C329.086 103.562 329.32 101.836 329.789 100.32C330.258 98.7891 330.922 97.4922 331.781 96.4297C332.641 95.3672 333.664 94.5625 334.852 94.0156C336.055 93.4531 337.391 93.1719 338.859 93.1719C340.031 93.1719 341.102 93.3438 342.07 93.6875C343.055 94.0312 343.898 94.5859 344.602 95.3516C345.32 96.1172 345.867 97.1328 346.242 98.3984C346.633 99.6484 346.828 101.195 346.828 103.039V119H338.883V103.016C338.883 102 338.742 101.227 338.461 100.695C338.18 100.148 337.773 99.7734 337.242 99.5703C336.711 99.3672 336.062 99.2656 335.297 99.2656C334.484 99.2656 333.797 99.4219 333.234 99.7344C332.672 100.047 332.219 100.484 331.875 101.047C331.547 101.594 331.305 102.242 331.148 102.992C331.008 103.742 330.938 104.562 330.938 105.453ZM363.773 108.195H357.047C357.047 106.82 357.141 105.609 357.328 104.562C357.531 103.5 357.875 102.547 358.359 101.703C358.844 100.859 359.5 100.078 360.328 99.3594C361.062 98.75 361.695 98.1641 362.227 97.6016C362.758 97.0391 363.164 96.4688 363.445 95.8906C363.727 95.3125 363.867 94.6953 363.867 94.0391C363.867 93.2266 363.75 92.5625 363.516 92.0469C363.297 91.5312 362.961 91.1484 362.508 90.8984C362.07 90.6328 361.516 90.5 360.844 90.5C360.297 90.5 359.781 90.6328 359.297 90.8984C358.828 91.1641 358.445 91.5781 358.148 92.1406C357.852 92.6875 357.688 93.4141 357.656 94.3203H349.711C349.758 91.9922 350.273 90.1016 351.258 88.6484C352.258 87.1797 353.586 86.1094 355.242 85.4375C356.914 84.75 358.781 84.4062 360.844 84.4062C363.125 84.4062 365.086 84.7578 366.727 85.4609C368.367 86.1641 369.625 87.2109 370.5 88.6016C371.375 89.9766 371.812 91.6719 371.812 93.6875C371.812 95.0312 371.555 96.2031 371.039 97.2031C370.539 98.1875 369.859 99.1094 369 99.9688C368.156 100.812 367.211 101.719 366.164 102.688C365.258 103.484 364.641 104.297 364.312 105.125C363.984 105.938 363.805 106.961 363.773 108.195ZM356.086 115.32C356.086 114.195 356.492 113.258 357.305 112.508C358.117 111.742 359.172 111.359 360.469 111.359C361.766 111.359 362.82 111.742 363.633 112.508C364.445 113.258 364.852 114.195 364.852 115.32C364.852 116.445 364.445 117.391 363.633 118.156C362.82 118.906 361.766 119.281 360.469 119.281C359.172 119.281 358.117 118.906 357.305 118.156C356.492 117.391 356.086 116.445 356.086 115.32Z" fill="black"/>
<path d="M1134 0H1348C1356.28 0 1363 6.71573 1363 15V148C1363 156.284 1356.28 163 1348 163H1134V0Z" fill="#2A7FBC"/>
<path d="M1260.62 78.8847C1263.81 78.8847 1266.93 79.805 1269.59 81.5293C1272.25 83.2536 1274.32 85.7044 1275.54 88.5718C1276.76 91.4391 1277.08 94.5943 1276.46 97.6383C1275.84 100.682 1274.3 103.478 1272.04 105.673C1269.78 107.868 1266.9 109.362 1263.77 109.968C1260.63 110.573 1257.39 110.262 1254.43 109.075C1251.48 107.887 1248.96 105.876 1247.18 103.295C1245.41 100.714 1244.46 97.6806 1244.46 94.5769C1244.46 90.4151 1246.16 86.4237 1249.19 83.4808C1252.22 80.538 1256.33 78.8847 1260.62 78.8847ZM1260.62 73.6539C1256.36 73.6539 1252.19 74.881 1248.65 77.1801C1245.11 79.4791 1242.35 82.7469 1240.72 86.57C1239.09 90.3932 1238.66 94.6001 1239.49 98.6588C1240.32 102.717 1242.37 106.446 1245.39 109.372C1248.4 112.298 1252.24 114.291 1256.41 115.098C1260.59 115.905 1264.92 115.491 1268.86 113.907C1272.79 112.324 1276.16 109.642 1278.52 106.201C1280.89 102.76 1282.15 98.7151 1282.15 94.5769C1282.15 89.0278 1279.88 83.706 1275.85 79.7821C1271.81 75.8583 1266.33 73.6539 1260.62 73.6539Z" fill="white"/>
<path d="M1274.08 47.5H1220.23C1218.8 47.5 1217.43 48.0511 1216.42 49.0321C1215.41 50.013 1214.85 51.3435 1214.85 52.7307V105.038C1214.85 106.426 1215.41 107.756 1216.42 108.737C1217.43 109.718 1218.8 110.269 1220.23 110.269H1231V105.038H1220.23V68.423H1279.46V52.7307C1279.46 51.3435 1278.89 50.013 1277.88 49.0321C1276.87 48.0511 1275.5 47.5 1274.08 47.5ZM1220.23 63.1922V52.7307H1274.08V63.1922H1220.23Z" fill="white"/>
<path d="M1255.23 86.731V102.423L1268.69 94.5771L1255.23 86.731Z" fill="white"/>
</svg>
