<svg width="1363" height="163" viewBox="0 0 1363 163" fill="none" xmlns="http://www.w3.org/2000/svg">
<path d="M0 15C0 6.71573 6.71573 0 15 0H37V163H15C6.71573 163 0 156.284 0 148V15Z" fill="#2B2B2E"/>
<rect width="1097" height="163" transform="translate(37)" fill="#F0F0F0"/>
<path d="M101.906 53.9219L94.3945 51.2383V48.0859L104.602 52.375V54.6367L101.906 53.9219ZM94.3945 56.1719L101.918 53.4297L104.602 52.7852V55.0352L94.3945 59.3242V56.1719ZM114.504 43.9375H117.48L121.863 56.4648L126.246 43.9375H129.223L123.059 61H120.668L114.504 43.9375ZM112.898 43.9375H115.863L116.402 56.1484V61H112.898V43.9375ZM127.863 43.9375H130.84V61H127.324V56.1484L127.863 43.9375ZM137.273 48.3203V61H133.887V48.3203H137.273ZM133.676 45.0156C133.676 44.5234 133.848 44.1172 134.191 43.7969C134.535 43.4766 134.996 43.3164 135.574 43.3164C136.145 43.3164 136.602 43.4766 136.945 43.7969C137.297 44.1172 137.473 44.5234 137.473 45.0156C137.473 45.5078 137.297 45.9141 136.945 46.2344C136.602 46.5547 136.145 46.7148 135.574 46.7148C134.996 46.7148 134.535 46.5547 134.191 46.2344C133.848 45.9141 133.676 45.5078 133.676 45.0156ZM143.367 51.0273V61H139.992V48.3203H143.156L143.367 51.0273ZM142.875 54.2148H141.961C141.961 53.2773 142.082 52.4336 142.324 51.6836C142.566 50.9258 142.906 50.2812 143.344 49.75C143.781 49.2109 144.301 48.8008 144.902 48.5195C145.512 48.2305 146.191 48.0859 146.941 48.0859C147.535 48.0859 148.078 48.1719 148.57 48.3438C149.062 48.5156 149.484 48.7891 149.836 49.1641C150.195 49.5391 150.469 50.0352 150.656 50.6523C150.852 51.2695 150.949 52.0234 150.949 52.9141V61H147.551V52.9023C147.551 52.3398 147.473 51.9023 147.316 51.5898C147.16 51.2773 146.93 51.0586 146.625 50.9336C146.328 50.8008 145.961 50.7344 145.523 50.7344C145.07 50.7344 144.676 50.8242 144.34 51.0039C144.012 51.1836 143.738 51.4336 143.52 51.7539C143.309 52.0664 143.148 52.4336 143.039 52.8555C142.93 53.2773 142.875 53.7305 142.875 54.2148ZM159.352 61.2344C158.367 61.2344 157.484 61.0781 156.703 60.7656C155.922 60.4453 155.258 60.0039 154.711 59.4414C154.172 58.8789 153.758 58.2266 153.469 57.4844C153.18 56.7344 153.035 55.9375 153.035 55.0938V54.625C153.035 53.6641 153.172 52.7852 153.445 51.9883C153.719 51.1914 154.109 50.5 154.617 49.9141C155.133 49.3281 155.758 48.8789 156.492 48.5664C157.227 48.2461 158.055 48.0859 158.977 48.0859C159.875 48.0859 160.672 48.2344 161.367 48.5312C162.062 48.8281 162.645 49.25 163.113 49.7969C163.59 50.3438 163.949 51 164.191 51.7656C164.434 52.5234 164.555 53.3672 164.555 54.2969V55.7031H154.477V53.4531H161.238V53.1953C161.238 52.7266 161.152 52.3086 160.98 51.9414C160.816 51.5664 160.566 51.2695 160.23 51.0508C159.895 50.832 159.465 50.7227 158.941 50.7227C158.496 50.7227 158.113 50.8203 157.793 51.0156C157.473 51.2109 157.211 51.4844 157.008 51.8359C156.812 52.1875 156.664 52.6016 156.562 53.0781C156.469 53.5469 156.422 54.0625 156.422 54.625V55.0938C156.422 55.6016 156.492 56.0703 156.633 56.5C156.781 56.9297 156.988 57.3008 157.254 57.6133C157.527 57.9258 157.855 58.168 158.238 58.3398C158.629 58.5117 159.07 58.5977 159.562 58.5977C160.172 58.5977 160.738 58.4805 161.262 58.2461C161.793 58.0039 162.25 57.6406 162.633 57.1562L164.273 58.9375C164.008 59.3203 163.645 59.6875 163.184 60.0391C162.73 60.3906 162.184 60.6797 161.543 60.9062C160.902 61.125 160.172 61.2344 159.352 61.2344ZM173.965 58.2344V43H177.363V61H174.305L173.965 58.2344ZM165.949 54.8125V54.5664C165.949 53.5977 166.059 52.7188 166.277 51.9297C166.496 51.1328 166.816 50.4492 167.238 49.8789C167.66 49.3086 168.18 48.8672 168.797 48.5547C169.414 48.2422 170.117 48.0859 170.906 48.0859C171.648 48.0859 172.297 48.2422 172.852 48.5547C173.414 48.8672 173.891 49.3125 174.281 49.8906C174.68 50.4609 175 51.1367 175.242 51.918C175.484 52.6914 175.66 53.5391 175.77 54.4609V55C175.66 55.8828 175.484 56.7031 175.242 57.4609C175 58.2188 174.68 58.8828 174.281 59.4531C173.891 60.0156 173.414 60.4531 172.852 60.7656C172.289 61.0781 171.633 61.2344 170.883 61.2344C170.094 61.2344 169.391 61.0742 168.773 60.7539C168.164 60.4336 167.648 59.9844 167.227 59.4062C166.812 58.8281 166.496 58.1484 166.277 57.3672C166.059 56.5859 165.949 55.7344 165.949 54.8125ZM169.324 54.5664V54.8125C169.324 55.3359 169.363 55.8242 169.441 56.2773C169.527 56.7305 169.664 57.1328 169.852 57.4844C170.047 57.8281 170.297 58.0977 170.602 58.293C170.914 58.4805 171.293 58.5742 171.738 58.5742C172.316 58.5742 172.793 58.4453 173.168 58.1875C173.543 57.9219 173.828 57.5586 174.023 57.0977C174.227 56.6367 174.344 56.1055 174.375 55.5039V53.9688C174.352 53.4766 174.281 53.0352 174.164 52.6445C174.055 52.2461 173.891 51.9062 173.672 51.625C173.461 51.3438 173.195 51.125 172.875 50.9688C172.562 50.8125 172.191 50.7344 171.762 50.7344C171.324 50.7344 170.949 50.8359 170.637 51.0391C170.324 51.2344 170.07 51.5039 169.875 51.8477C169.688 52.1914 169.547 52.5977 169.453 53.0664C169.367 53.5273 169.324 54.0273 169.324 54.5664ZM185.836 61.2344C184.852 61.2344 183.969 61.0781 183.188 60.7656C182.406 60.4453 181.742 60.0039 181.195 59.4414C180.656 58.8789 180.242 58.2266 179.953 57.4844C179.664 56.7344 179.52 55.9375 179.52 55.0938V54.625C179.52 53.6641 179.656 52.7852 179.93 51.9883C180.203 51.1914 180.594 50.5 181.102 49.9141C181.617 49.3281 182.242 48.8789 182.977 48.5664C183.711 48.2461 184.539 48.0859 185.461 48.0859C186.359 48.0859 187.156 48.2344 187.852 48.5312C188.547 48.8281 189.129 49.25 189.598 49.7969C190.074 50.3438 190.434 51 190.676 51.7656C190.918 52.5234 191.039 53.3672 191.039 54.2969V55.7031H180.961V53.4531H187.723V53.1953C187.723 52.7266 187.637 52.3086 187.465 51.9414C187.301 51.5664 187.051 51.2695 186.715 51.0508C186.379 50.832 185.949 50.7227 185.426 50.7227C184.98 50.7227 184.598 50.8203 184.277 51.0156C183.957 51.2109 183.695 51.4844 183.492 51.8359C183.297 52.1875 183.148 52.6016 183.047 53.0781C182.953 53.5469 182.906 54.0625 182.906 54.625V55.0938C182.906 55.6016 182.977 56.0703 183.117 56.5C183.266 56.9297 183.473 57.3008 183.738 57.6133C184.012 57.9258 184.34 58.168 184.723 58.3398C185.113 58.5117 185.555 58.5977 186.047 58.5977C186.656 58.5977 187.223 58.4805 187.746 58.2461C188.277 58.0039 188.734 57.6406 189.117 57.1562L190.758 58.9375C190.492 59.3203 190.129 59.6875 189.668 60.0391C189.215 60.3906 188.668 60.6797 188.027 60.9062C187.387 61.125 186.656 61.2344 185.836 61.2344ZM197.109 58.5391L199.922 48.3203H203.449L199.172 61H197.039L197.109 58.5391ZM195.176 48.3203L198 58.5508L198.059 61H195.914L191.637 48.3203H195.176Z" fill="#888888"/>
<path d="M114.117 84.875H122.344V107.164C122.344 109.82 121.789 112.07 120.68 113.914C119.57 115.742 118.016 117.125 116.016 118.062C114.016 119 111.664 119.469 108.961 119.469C106.289 119.469 103.938 119 101.906 118.062C99.8906 117.125 98.3125 115.742 97.1719 113.914C96.0469 112.07 95.4844 109.82 95.4844 107.164V84.875H103.734V107.164C103.734 108.57 103.938 109.719 104.344 110.609C104.75 111.484 105.344 112.125 106.125 112.531C106.906 112.938 107.852 113.141 108.961 113.141C110.086 113.141 111.031 112.938 111.797 112.531C112.562 112.125 113.141 111.484 113.531 110.609C113.922 109.719 114.117 108.57 114.117 107.164V84.875ZM134.906 99.0547V119H127.008V93.6406H134.414L134.906 99.0547ZM133.969 105.453L132.117 105.5C132.117 103.562 132.352 101.836 132.82 100.32C133.289 98.7891 133.953 97.4922 134.812 96.4297C135.672 95.3672 136.695 94.5625 137.883 94.0156C139.086 93.4531 140.422 93.1719 141.891 93.1719C143.062 93.1719 144.133 93.3438 145.102 93.6875C146.086 94.0312 146.93 94.5859 147.633 95.3516C148.352 96.1172 148.898 97.1328 149.273 98.3984C149.664 99.6484 149.859 101.195 149.859 103.039V119H141.914V103.016C141.914 102 141.773 101.227 141.492 100.695C141.211 100.148 140.805 99.7734 140.273 99.5703C139.742 99.3672 139.094 99.2656 138.328 99.2656C137.516 99.2656 136.828 99.4219 136.266 99.7344C135.703 100.047 135.25 100.484 134.906 101.047C134.578 101.594 134.336 102.242 134.18 102.992C134.039 103.742 133.969 104.562 133.969 105.453ZM162.586 93.6406V119H154.664V93.6406H162.586ZM154.195 87.1016C154.195 85.9766 154.602 85.0547 155.414 84.3359C156.227 83.6172 157.281 83.2578 158.578 83.2578C159.875 83.2578 160.93 83.6172 161.742 84.3359C162.555 85.0547 162.961 85.9766 162.961 87.1016C162.961 88.2266 162.555 89.1484 161.742 89.8672C160.93 90.5859 159.875 90.9453 158.578 90.9453C157.281 90.9453 156.227 90.5859 155.414 89.8672C154.602 89.1484 154.195 88.2266 154.195 87.1016ZM180.82 93.6406V99.125H165.539V93.6406H180.82ZM168.75 87.3359H176.648V110.727C176.648 111.398 176.727 111.922 176.883 112.297C177.039 112.656 177.305 112.914 177.68 113.07C178.07 113.211 178.586 113.281 179.227 113.281C179.68 113.281 180.055 113.273 180.352 113.258C180.648 113.227 180.93 113.188 181.195 113.141V118.789C180.523 119.008 179.82 119.172 179.086 119.281C178.352 119.406 177.57 119.469 176.742 119.469C175.055 119.469 173.609 119.203 172.406 118.672C171.219 118.141 170.312 117.305 169.688 116.164C169.062 115.023 168.75 113.539 168.75 111.711V87.3359ZM211.406 84.875V119H203.18V84.875H211.406ZM221.672 84.875V91.2266H193.148V84.875H221.672ZM234.961 119.469C232.898 119.469 231.055 119.148 229.43 118.508C227.805 117.852 226.43 116.953 225.305 115.812C224.195 114.672 223.344 113.359 222.75 111.875C222.172 110.391 221.883 108.82 221.883 107.164V106.273C221.883 104.414 222.141 102.695 222.656 101.117C223.172 99.5234 223.938 98.1328 224.953 96.9453C225.969 95.7578 227.242 94.8359 228.773 94.1797C230.305 93.5078 232.086 93.1719 234.117 93.1719C235.914 93.1719 237.523 93.4609 238.945 94.0391C240.367 94.6172 241.57 95.4453 242.555 96.5234C243.555 97.6016 244.312 98.9062 244.828 100.438C245.359 101.969 245.625 103.688 245.625 105.594V108.805H224.906V103.859H237.914V103.25C237.93 102.406 237.781 101.688 237.469 101.094C237.172 100.5 236.734 100.047 236.156 99.7344C235.578 99.4219 234.875 99.2656 234.047 99.2656C233.188 99.2656 232.477 99.4531 231.914 99.8281C231.367 100.203 230.938 100.719 230.625 101.375C230.328 102.016 230.117 102.758 229.992 103.602C229.867 104.445 229.805 105.336 229.805 106.273V107.164C229.805 108.102 229.93 108.953 230.18 109.719C230.445 110.484 230.82 111.141 231.305 111.688C231.805 112.219 232.398 112.633 233.086 112.93C233.789 113.227 234.586 113.375 235.477 113.375C236.555 113.375 237.617 113.172 238.664 112.766C239.711 112.359 240.609 111.688 241.359 110.75L244.945 115.016C244.43 115.75 243.695 116.461 242.742 117.148C241.805 117.836 240.68 118.398 239.367 118.836C238.055 119.258 236.586 119.469 234.961 119.469ZM262.125 111.875C262.125 111.438 261.977 111.062 261.68 110.75C261.398 110.422 260.898 110.125 260.18 109.859C259.461 109.578 258.453 109.297 257.156 109.016C255.922 108.75 254.758 108.398 253.664 107.961C252.586 107.523 251.641 106.992 250.828 106.367C250.016 105.742 249.375 105 248.906 104.141C248.453 103.281 248.227 102.297 248.227 101.188C248.227 100.109 248.453 99.0938 248.906 98.1406C249.375 97.1719 250.055 96.3203 250.945 95.5859C251.852 94.8359 252.953 94.25 254.25 93.8281C255.547 93.3906 257.023 93.1719 258.68 93.1719C260.961 93.1719 262.93 93.5234 264.586 94.2266C266.242 94.9141 267.516 95.8828 268.406 97.1328C269.312 98.3672 269.766 99.7969 269.766 101.422H261.867C261.867 100.781 261.758 100.234 261.539 99.7812C261.336 99.3281 261 98.9844 260.531 98.75C260.062 98.5 259.438 98.375 258.656 98.375C258.109 98.375 257.609 98.4766 257.156 98.6797C256.719 98.8828 256.367 99.1641 256.102 99.5234C255.836 99.8828 255.703 100.305 255.703 100.789C255.703 101.133 255.781 101.445 255.938 101.727C256.109 101.992 256.367 102.242 256.711 102.477C257.055 102.695 257.492 102.898 258.023 103.086C258.555 103.258 259.195 103.414 259.945 103.555C261.648 103.867 263.242 104.312 264.727 104.891C266.211 105.469 267.414 106.289 268.336 107.352C269.273 108.414 269.742 109.844 269.742 111.641C269.742 112.766 269.484 113.805 268.969 114.758C268.453 115.695 267.711 116.523 266.742 117.242C265.773 117.945 264.609 118.492 263.25 118.883C261.891 119.273 260.359 119.469 258.656 119.469C256.234 119.469 254.188 119.039 252.516 118.18C250.844 117.305 249.578 116.211 248.719 114.898C247.875 113.57 247.453 112.227 247.453 110.867H254.812C254.844 111.648 255.031 112.289 255.375 112.789C255.734 113.289 256.211 113.656 256.805 113.891C257.398 114.125 258.086 114.242 258.867 114.242C259.586 114.242 260.18 114.141 260.648 113.938C261.133 113.734 261.5 113.461 261.75 113.117C262 112.758 262.125 112.344 262.125 111.875ZM286.805 93.6406V99.125H271.523V93.6406H286.805ZM274.734 87.3359H282.633V110.727C282.633 111.398 282.711 111.922 282.867 112.297C283.023 112.656 283.289 112.914 283.664 113.07C284.055 113.211 284.57 113.281 285.211 113.281C285.664 113.281 286.039 113.273 286.336 113.258C286.633 113.227 286.914 113.188 287.18 113.141V118.789C286.508 119.008 285.805 119.172 285.07 119.281C284.336 119.406 283.555 119.469 282.727 119.469C281.039 119.469 279.594 119.203 278.391 118.672C277.203 118.141 276.297 117.305 275.672 116.164C275.047 115.023 274.734 113.539 274.734 111.711V87.3359ZM298.289 93.6406V119H290.367V93.6406H298.289ZM289.898 87.1016C289.898 85.9766 290.305 85.0547 291.117 84.3359C291.93 83.6172 292.984 83.2578 294.281 83.2578C295.578 83.2578 296.633 83.6172 297.445 84.3359C298.258 85.0547 298.664 85.9766 298.664 87.1016C298.664 88.2266 298.258 89.1484 297.445 89.8672C296.633 90.5859 295.578 90.9453 294.281 90.9453C292.984 90.9453 291.93 90.5859 291.117 89.8672C290.305 89.1484 289.898 88.2266 289.898 87.1016ZM310.922 99.0547V119H303.023V93.6406H310.43L310.922 99.0547ZM309.984 105.453L308.133 105.5C308.133 103.562 308.367 101.836 308.836 100.32C309.305 98.7891 309.969 97.4922 310.828 96.4297C311.688 95.3672 312.711 94.5625 313.898 94.0156C315.102 93.4531 316.438 93.1719 317.906 93.1719C319.078 93.1719 320.148 93.3438 321.117 93.6875C322.102 94.0312 322.945 94.5859 323.648 95.3516C324.367 96.1172 324.914 97.1328 325.289 98.3984C325.68 99.6484 325.875 101.195 325.875 103.039V119H317.93V103.016C317.93 102 317.789 101.227 317.508 100.695C317.227 100.148 316.82 99.7734 316.289 99.5703C315.758 99.3672 315.109 99.2656 314.344 99.2656C313.531 99.2656 312.844 99.4219 312.281 99.7344C311.719 100.047 311.266 100.484 310.922 101.047C310.594 101.594 310.352 102.242 310.195 102.992C310.055 103.742 309.984 104.562 309.984 105.453ZM346.195 93.6406H353.367V118.016C353.367 120.359 352.828 122.344 351.75 123.969C350.672 125.609 349.164 126.852 347.227 127.695C345.305 128.555 343.055 128.984 340.477 128.984C339.336 128.984 338.172 128.836 336.984 128.539C335.797 128.258 334.688 127.836 333.656 127.273C332.625 126.711 331.758 126.016 331.055 125.188L334.359 120.547C335 121.266 335.805 121.875 336.773 122.375C337.742 122.891 338.883 123.148 340.195 123.148C341.336 123.148 342.289 122.945 343.055 122.539C343.836 122.133 344.43 121.539 344.836 120.758C345.242 119.992 345.445 119.062 345.445 117.969V99.6406L346.195 93.6406ZM329.344 106.625V106.133C329.344 104.211 329.578 102.461 330.047 100.883C330.531 99.2891 331.219 97.9219 332.109 96.7812C333.016 95.625 334.109 94.7344 335.391 94.1094C336.672 93.4844 338.117 93.1719 339.727 93.1719C341.461 93.1719 342.883 93.5078 343.992 94.1797C345.117 94.8359 346.016 95.7578 346.688 96.9453C347.375 98.1328 347.906 99.5234 348.281 101.117C348.672 102.695 349 104.398 349.266 106.227V106.812C349 108.531 348.633 110.156 348.164 111.688C347.711 113.203 347.117 114.547 346.383 115.719C345.648 116.891 344.727 117.812 343.617 118.484C342.523 119.141 341.211 119.469 339.68 119.469C338.086 119.469 336.648 119.148 335.367 118.508C334.102 117.867 333.016 116.969 332.109 115.812C331.219 114.656 330.531 113.297 330.047 111.734C329.578 110.172 329.344 108.469 329.344 106.625ZM337.242 106.133V106.625C337.242 107.578 337.328 108.461 337.5 109.273C337.688 110.086 337.969 110.805 338.344 111.43C338.719 112.039 339.18 112.516 339.727 112.859C340.289 113.203 340.945 113.375 341.695 113.375C342.836 113.375 343.758 113.133 344.461 112.648C345.164 112.164 345.672 111.477 345.984 110.586C346.297 109.695 346.43 108.648 346.383 107.445V105.594C346.414 104.562 346.344 103.656 346.172 102.875C346 102.078 345.727 101.414 345.352 100.883C344.992 100.352 344.508 99.9531 343.898 99.6875C343.305 99.4062 342.586 99.2656 341.742 99.2656C341.008 99.2656 340.359 99.4375 339.797 99.7812C339.234 100.125 338.766 100.609 338.391 101.234C338.016 101.844 337.727 102.57 337.523 103.414C337.336 104.242 337.242 105.148 337.242 106.133Z" fill="black"/>
<path d="M1134 0H1348C1356.28 0 1363 6.71573 1363 15V148C1363 156.284 1356.28 163 1348 163H1134V0Z" fill="#2A7FBC"/>
<path d="M1210.62 43.625H1286.38V119.375H1210.62V43.625Z" fill="white" fill-opacity="0.01"/>
<path d="M1276.91 72.0312V105.172C1276.91 107.787 1274.79 109.906 1272.17 109.906H1224.83C1222.21 109.906 1220.09 107.787 1220.09 105.172V57.8281C1220.09 55.2134 1222.21 53.0938 1224.83 53.0938H1261.12" stroke="white" stroke-width="7.24" stroke-linecap="round" stroke-linejoin="round"/>
<path d="M1232.72 75.1875L1248.5 87.8125L1276.91 53.0938" stroke="white" stroke-width="7.24" stroke-linecap="round" stroke-linejoin="round"/>
</svg>
