<svg width="1363" height="163" viewBox="0 0 1363 163" fill="none" xmlns="http://www.w3.org/2000/svg">
<path d="M0 15C0 6.71573 6.71573 0 15 0H37V163H15C6.71573 163 0 156.284 0 148V15Z" fill="#2B2B2E"/>
<rect width="1097" height="163" transform="translate(37)" fill="#F0F0F0"/>
<path d="M101.906 53.9219L94.3945 51.2383V48.0859L104.602 52.375V54.6367L101.906 53.9219ZM94.3945 56.1719L101.918 53.4297L104.602 52.7852V55.0352L94.3945 59.3242V56.1719ZM114.504 43.9375H117.48L121.863 56.4648L126.246 43.9375H129.223L123.059 61H120.668L114.504 43.9375ZM112.898 43.9375H115.863L116.402 56.1484V61H112.898V43.9375ZM127.863 43.9375H130.84V61H127.324V56.1484L127.863 43.9375ZM137.273 48.3203V61H133.887V48.3203H137.273ZM133.676 45.0156C133.676 44.5234 133.848 44.1172 134.191 43.7969C134.535 43.4766 134.996 43.3164 135.574 43.3164C136.145 43.3164 136.602 43.4766 136.945 43.7969C137.297 44.1172 137.473 44.5234 137.473 45.0156C137.473 45.5078 137.297 45.9141 136.945 46.2344C136.602 46.5547 136.145 46.7148 135.574 46.7148C134.996 46.7148 134.535 46.5547 134.191 46.2344C133.848 45.9141 133.676 45.5078 133.676 45.0156ZM143.367 51.0273V61H139.992V48.3203H143.156L143.367 51.0273ZM142.875 54.2148H141.961C141.961 53.2773 142.082 52.4336 142.324 51.6836C142.566 50.9258 142.906 50.2812 143.344 49.75C143.781 49.2109 144.301 48.8008 144.902 48.5195C145.512 48.2305 146.191 48.0859 146.941 48.0859C147.535 48.0859 148.078 48.1719 148.57 48.3438C149.062 48.5156 149.484 48.7891 149.836 49.1641C150.195 49.5391 150.469 50.0352 150.656 50.6523C150.852 51.2695 150.949 52.0234 150.949 52.9141V61H147.551V52.9023C147.551 52.3398 147.473 51.9023 147.316 51.5898C147.16 51.2773 146.93 51.0586 146.625 50.9336C146.328 50.8008 145.961 50.7344 145.523 50.7344C145.07 50.7344 144.676 50.8242 144.34 51.0039C144.012 51.1836 143.738 51.4336 143.52 51.7539C143.309 52.0664 143.148 52.4336 143.039 52.8555C142.93 53.2773 142.875 53.7305 142.875 54.2148ZM159.352 61.2344C158.367 61.2344 157.484 61.0781 156.703 60.7656C155.922 60.4453 155.258 60.0039 154.711 59.4414C154.172 58.8789 153.758 58.2266 153.469 57.4844C153.18 56.7344 153.035 55.9375 153.035 55.0938V54.625C153.035 53.6641 153.172 52.7852 153.445 51.9883C153.719 51.1914 154.109 50.5 154.617 49.9141C155.133 49.3281 155.758 48.8789 156.492 48.5664C157.227 48.2461 158.055 48.0859 158.977 48.0859C159.875 48.0859 160.672 48.2344 161.367 48.5312C162.062 48.8281 162.645 49.25 163.113 49.7969C163.59 50.3438 163.949 51 164.191 51.7656C164.434 52.5234 164.555 53.3672 164.555 54.2969V55.7031H154.477V53.4531H161.238V53.1953C161.238 52.7266 161.152 52.3086 160.98 51.9414C160.816 51.5664 160.566 51.2695 160.23 51.0508C159.895 50.832 159.465 50.7227 158.941 50.7227C158.496 50.7227 158.113 50.8203 157.793 51.0156C157.473 51.2109 157.211 51.4844 157.008 51.8359C156.812 52.1875 156.664 52.6016 156.562 53.0781C156.469 53.5469 156.422 54.0625 156.422 54.625V55.0938C156.422 55.6016 156.492 56.0703 156.633 56.5C156.781 56.9297 156.988 57.3008 157.254 57.6133C157.527 57.9258 157.855 58.168 158.238 58.3398C158.629 58.5117 159.07 58.5977 159.562 58.5977C160.172 58.5977 160.738 58.4805 161.262 58.2461C161.793 58.0039 162.25 57.6406 162.633 57.1562L164.273 58.9375C164.008 59.3203 163.645 59.6875 163.184 60.0391C162.73 60.3906 162.184 60.6797 161.543 60.9062C160.902 61.125 160.172 61.2344 159.352 61.2344ZM173.965 58.2344V43H177.363V61H174.305L173.965 58.2344ZM165.949 54.8125V54.5664C165.949 53.5977 166.059 52.7188 166.277 51.9297C166.496 51.1328 166.816 50.4492 167.238 49.8789C167.66 49.3086 168.18 48.8672 168.797 48.5547C169.414 48.2422 170.117 48.0859 170.906 48.0859C171.648 48.0859 172.297 48.2422 172.852 48.5547C173.414 48.8672 173.891 49.3125 174.281 49.8906C174.68 50.4609 175 51.1367 175.242 51.918C175.484 52.6914 175.66 53.5391 175.77 54.4609V55C175.66 55.8828 175.484 56.7031 175.242 57.4609C175 58.2188 174.68 58.8828 174.281 59.4531C173.891 60.0156 173.414 60.4531 172.852 60.7656C172.289 61.0781 171.633 61.2344 170.883 61.2344C170.094 61.2344 169.391 61.0742 168.773 60.7539C168.164 60.4336 167.648 59.9844 167.227 59.4062C166.812 58.8281 166.496 58.1484 166.277 57.3672C166.059 56.5859 165.949 55.7344 165.949 54.8125ZM169.324 54.5664V54.8125C169.324 55.3359 169.363 55.8242 169.441 56.2773C169.527 56.7305 169.664 57.1328 169.852 57.4844C170.047 57.8281 170.297 58.0977 170.602 58.293C170.914 58.4805 171.293 58.5742 171.738 58.5742C172.316 58.5742 172.793 58.4453 173.168 58.1875C173.543 57.9219 173.828 57.5586 174.023 57.0977C174.227 56.6367 174.344 56.1055 174.375 55.5039V53.9688C174.352 53.4766 174.281 53.0352 174.164 52.6445C174.055 52.2461 173.891 51.9062 173.672 51.625C173.461 51.3438 173.195 51.125 172.875 50.9688C172.562 50.8125 172.191 50.7344 171.762 50.7344C171.324 50.7344 170.949 50.8359 170.637 51.0391C170.324 51.2344 170.07 51.5039 169.875 51.8477C169.688 52.1914 169.547 52.5977 169.453 53.0664C169.367 53.5273 169.324 54.0273 169.324 54.5664ZM185.836 61.2344C184.852 61.2344 183.969 61.0781 183.188 60.7656C182.406 60.4453 181.742 60.0039 181.195 59.4414C180.656 58.8789 180.242 58.2266 179.953 57.4844C179.664 56.7344 179.52 55.9375 179.52 55.0938V54.625C179.52 53.6641 179.656 52.7852 179.93 51.9883C180.203 51.1914 180.594 50.5 181.102 49.9141C181.617 49.3281 182.242 48.8789 182.977 48.5664C183.711 48.2461 184.539 48.0859 185.461 48.0859C186.359 48.0859 187.156 48.2344 187.852 48.5312C188.547 48.8281 189.129 49.25 189.598 49.7969C190.074 50.3438 190.434 51 190.676 51.7656C190.918 52.5234 191.039 53.3672 191.039 54.2969V55.7031H180.961V53.4531H187.723V53.1953C187.723 52.7266 187.637 52.3086 187.465 51.9414C187.301 51.5664 187.051 51.2695 186.715 51.0508C186.379 50.832 185.949 50.7227 185.426 50.7227C184.98 50.7227 184.598 50.8203 184.277 51.0156C183.957 51.2109 183.695 51.4844 183.492 51.8359C183.297 52.1875 183.148 52.6016 183.047 53.0781C182.953 53.5469 182.906 54.0625 182.906 54.625V55.0938C182.906 55.6016 182.977 56.0703 183.117 56.5C183.266 56.9297 183.473 57.3008 183.738 57.6133C184.012 57.9258 184.34 58.168 184.723 58.3398C185.113 58.5117 185.555 58.5977 186.047 58.5977C186.656 58.5977 187.223 58.4805 187.746 58.2461C188.277 58.0039 188.734 57.6406 189.117 57.1562L190.758 58.9375C190.492 59.3203 190.129 59.6875 189.668 60.0391C189.215 60.3906 188.668 60.6797 188.027 60.9062C187.387 61.125 186.656 61.2344 185.836 61.2344ZM197.109 58.5391L199.922 48.3203H203.449L199.172 61H197.039L197.109 58.5391ZM195.176 48.3203L198 58.5508L198.059 61H195.914L191.637 48.3203H195.176Z" fill="#888888"/>
<path d="M114.117 84.875H122.344V107.164C122.344 109.82 121.789 112.07 120.68 113.914C119.57 115.742 118.016 117.125 116.016 118.062C114.016 119 111.664 119.469 108.961 119.469C106.289 119.469 103.938 119 101.906 118.062C99.8906 117.125 98.3125 115.742 97.1719 113.914C96.0469 112.07 95.4844 109.82 95.4844 107.164V84.875H103.734V107.164C103.734 108.57 103.938 109.719 104.344 110.609C104.75 111.484 105.344 112.125 106.125 112.531C106.906 112.938 107.852 113.141 108.961 113.141C110.086 113.141 111.031 112.938 111.797 112.531C112.562 112.125 113.141 111.484 113.531 110.609C113.922 109.719 114.117 108.57 114.117 107.164V84.875ZM136.266 84.875V119H128.062V84.875H136.266ZM172.523 84.875H180.75V107.164C180.75 109.82 180.195 112.07 179.086 113.914C177.977 115.742 176.422 117.125 174.422 118.062C172.422 119 170.07 119.469 167.367 119.469C164.695 119.469 162.344 119 160.312 118.062C158.297 117.125 156.719 115.742 155.578 113.914C154.453 112.07 153.891 109.82 153.891 107.164V84.875H162.141V107.164C162.141 108.57 162.344 109.719 162.75 110.609C163.156 111.484 163.75 112.125 164.531 112.531C165.312 112.938 166.258 113.141 167.367 113.141C168.492 113.141 169.438 112.938 170.203 112.531C170.969 112.125 171.547 111.484 171.938 110.609C172.328 109.719 172.523 108.57 172.523 107.164V84.875ZM193.078 84.875L198.656 96.2188L204.234 84.875H213.609L204.094 101.797L213.867 119H204.398L198.656 107.445L192.914 119H183.422L193.219 101.797L183.68 84.875H193.078Z" fill="black"/>
<path d="M1134 0H1348C1356.28 0 1363 6.71573 1363 15V148C1363 156.284 1356.28 163 1348 163H1134V0Z" fill="#2A7FBC"/>
<path d="M1248.5 111.917C1244.51 111.917 1240.55 111.13 1236.86 109.601C1233.17 108.073 1229.82 105.832 1226.99 103.008C1221.29 97.3036 1218.08 89.567 1218.08 81.5C1218.08 73.433 1221.29 65.6964 1226.99 59.9922C1232.7 54.2879 1240.43 51.0833 1248.5 51.0833C1265.23 51.0833 1278.92 63.25 1278.92 78.4583C1278.92 83.2985 1276.99 87.9405 1273.57 91.363C1270.15 94.7856 1265.51 96.7083 1260.67 96.7083H1255.19C1254.28 96.7083 1253.67 97.3167 1253.67 98.2292C1253.67 98.5333 1253.97 98.8375 1253.97 99.1417C1255.19 100.662 1255.8 102.487 1255.8 104.312C1256.1 108.571 1252.76 111.917 1248.5 111.917ZM1248.5 57.1667C1242.05 57.1667 1235.86 59.7303 1231.29 64.2937C1226.73 68.8571 1224.17 75.0464 1224.17 81.5C1224.17 87.9536 1226.73 94.1429 1231.29 98.7063C1235.86 103.27 1242.05 105.833 1248.5 105.833C1249.41 105.833 1250.02 105.225 1250.02 104.312C1250.02 103.704 1249.72 103.4 1249.72 103.096C1248.5 101.575 1247.89 100.054 1247.89 98.2292C1247.89 93.9708 1251.24 90.625 1255.5 90.625H1260.67C1263.89 90.625 1266.99 89.3432 1269.27 87.0615C1271.55 84.7798 1272.83 81.6851 1272.83 78.4583C1272.83 66.5958 1261.88 57.1667 1248.5 57.1667ZM1231.77 75.4167C1234.2 75.4167 1236.33 77.5458 1236.33 79.9792C1236.33 82.4125 1234.2 84.5417 1231.77 84.5417C1229.34 84.5417 1227.21 82.4125 1227.21 79.9792C1227.21 77.5458 1229.34 75.4167 1231.77 75.4167ZM1240.9 63.25C1243.33 63.25 1245.46 65.3792 1245.46 67.8125C1245.46 70.2458 1243.33 72.375 1240.9 72.375C1238.46 72.375 1236.33 70.2458 1236.33 67.8125C1236.33 65.3792 1238.46 63.25 1240.9 63.25ZM1256.1 63.25C1258.54 63.25 1260.67 65.3792 1260.67 67.8125C1260.67 70.2458 1258.54 72.375 1256.1 72.375C1253.67 72.375 1251.54 70.2458 1251.54 67.8125C1251.54 65.3792 1253.67 63.25 1256.1 63.25ZM1265.23 75.4167C1267.66 75.4167 1269.79 77.5458 1269.79 79.9792C1269.79 82.4125 1267.66 84.5417 1265.23 84.5417C1262.8 84.5417 1260.67 82.4125 1260.67 79.9792C1260.67 77.5458 1262.8 75.4167 1265.23 75.4167Z" fill="white"/>
</svg>
